<?xml version="1.0" encoding="UTF-8"?>
<!DOCTYPE svg PUBLIC "-//W3C//DTD SVG 1.1//EN" "http://www.w3.org/Graphics/SVG/1.1/DTD/svg11.dtd">
<!-- Creator: CorelDRAW 2021 (64 Bit) -->
<svg xmlns="http://www.w3.org/2000/svg" xml:space="preserve" width="1113px" height="334px" version="1.1" style="shape-rendering:geometricPrecision; text-rendering:geometricPrecision; image-rendering:optimizeQuality; fill-rule:evenodd; clip-rule:evenodd"
viewBox="0 0 467.33 140.35"
 xmlns:xlink="http://www.w3.org/1999/xlink"
 xmlns:xodm="http://www.corel.com/coreldraw/odm/2003">
 <defs>
  <style type="text/css">
   <![CDATA[
    .fil1 {fill:#FEFEFE}
    .fil0 {fill:#AD3335}
    .fil2 {fill:#AD3335;fill-rule:nonzero}
   ]]>
  </style>
 </defs>
 <g id="Camada_x0020_1">
  <metadata id="CorelCorpID_0Corel-Layer"/>
  <g id="_1380178731088">
   <rect class="fil0" width="140.35" height="140.35" rx="14.21" ry="14.21"/>
   <g>
    <path class="fil1" d="M46.85 26.8c-0.54,2.32 -0.63,4.06 0.36,6.16 0.55,1.34 2.05,2.82 3.18,3.47 2.21,1.27 2.99,0.8 5.47,1.18 3.44,0.52 6.06,3.19 6.57,6.73l0.07 10.12 0 5.4 0 4.98 0 6.76 0 8.72 0 5.39 0 10.07 0 5.47 0 5.82c-0.01,2.92 -0.07,4.57 0.47,7.34 0.28,0.33 2.41,6.03 9.04,4.78 3.95,-0.75 6.32,-3.94 6.39,-7.84l0 -10.07 0 -5.5 0 -10.07 0 -5.4 0 -4.98 0 -10.47 0 -5 0 -5.35 0 -8.61c0.01,-3.9 2.22,-6.63 5.23,-7.78 3.58,-1.38 7,-0.44 9.38,2.12 1.68,1.82 1.91,3.56 1.91,6.59l0 7.74 0 5.32 0 5.01 0 10.48 0 4.99 0 5.4 0 10.49 0 5.07 0 10.03c0.08,4.35 2.88,7.47 6.92,7.91 4.54,0.5 8.28,-2.42 8.79,-6.15l0.12 -0.83c0.28,-2.4 0.06,-6.1 0.06,-8.64l0.01 -56.25c0,-1.2 -0.23,-3.29 -0.16,-4.19 -0.55,-0.61 -0.71,-2.22 -2.29,-3.58 -4.77,-4.11 -7.78,0.04 -11.96,-5.41 -1.27,-1.64 -1.39,-2.97 -1.52,-5.44 -0.42,-4.21 -3.64,-7.87 -8.12,-7.79 -4.31,0.08 -8,3.72 -8.32,7.81 -0.19,1.49 -0.01,2.07 -0.55,3.57 -2,5.57 -9.67,6.88 -13.31,2.62 -1.66,-1.95 -1.95,-2.97 -2.12,-6.19 -0.11,-1.14 -0.31,-1.97 -0.75,-2.92 -0.75,-1.6 -1.98,-3.01 -3.47,-3.91 -0.78,-0.48 -1.71,-0.8 -2.76,-0.93 -2.24,-0.27 -4.4,0.49 -5.67,1.55 -1.51,1.27 -2,2.06 -2.97,4.21z"/>
    <path class="fil1" d="M29.53 44.34l-0.07 10.12 0 5.42 0 8.71 0 6.76 0 4.97 0 5.39 0 10.1 0 10.14 0.04 6.33c0.48,3.8 2.99,6.51 6.8,6.99 2.04,0.25 4.15,-0.25 5.57,-1.2 1.59,-1.05 2.08,-1.99 3.05,-3.81 0.61,-2.43 0.44,-4.6 0.44,-7.19l0 -5.82 0 -5.47 0 -10.07 0 -5.39 0 -8.72 0 -6.76 0 -4.98 0 -5.4c0,-1.65 -0.22,-8.78 0.09,-9.77 -0.02,-0.04 -0.04,-0.09 -0.06,-0.12l-0.13 -0.4c-0.01,-0.07 -0.04,-0.31 -0.06,-0.41 -0.62,-3.64 -3.6,-6.79 -7.61,-6.88 -4.59,-0.09 -7.42,3.36 -8.06,7.46z"/>
   </g>
  </g>
  <g id="_1380178731424">
   <path class="fil2" d="M178.61 94.05c2.72,0 5.12,0.36 7.2,1.1 2.07,0.73 3.8,1.64 5.19,2.74 1.38,1.1 2.43,2.31 3.14,3.63 0.71,1.33 1.11,2.58 1.19,3.76 0.04,0.49 -0.11,0.88 -0.46,1.19 -0.34,0.3 -0.74,0.46 -1.19,0.46l-4.27 0c-0.69,0 -1.21,-0.14 -1.56,-0.4 -0.34,-0.26 -0.66,-0.62 -0.94,-1.07 -0.61,-1.02 -1.54,-1.9 -2.78,-2.65 -1.24,-0.76 -3.08,-1.13 -5.52,-1.13 -1.06,0 -2.07,0.11 -3.03,0.33 -0.95,0.23 -1.79,0.55 -2.5,0.98 -0.71,0.43 -1.27,0.95 -1.68,1.56 -0.4,0.61 -0.61,1.3 -0.61,2.07 0,0.94 0.2,1.7 0.58,2.29 0.39,0.59 1.04,1.1 1.96,1.53 0.91,0.42 2.12,0.82 3.63,1.19 1.5,0.36 3.38,0.79 5.61,1.28 2.45,0.53 4.55,1.15 6.32,1.86 1.77,0.71 3.22,1.57 4.34,2.56 1.11,1 1.95,2.15 2.5,3.45 0.55,1.31 0.82,2.79 0.82,4.46 0,1.83 -0.4,3.53 -1.22,5.1 -0.81,1.56 -1.97,2.91 -3.48,4.02 -1.5,1.12 -3.36,2.01 -5.55,2.66 -2.2,0.65 -4.66,0.98 -7.39,0.98 -2.28,0 -4.45,-0.28 -6.53,-0.83 -2.08,-0.55 -3.92,-1.34 -5.52,-2.38 -1.61,-1.04 -2.9,-2.29 -3.88,-3.75 -0.98,-1.47 -1.53,-3.1 -1.65,-4.89 -0.04,-0.48 0.11,-0.88 0.46,-1.19 0.34,-0.3 0.74,-0.45 1.19,-0.45l4.27 0c0.69,0 1.22,0.12 1.59,0.36 0.37,0.25 0.67,0.61 0.92,1.1 0.28,0.53 0.63,1.06 1.03,1.59 0.41,0.53 0.96,1 1.65,1.4 0.69,0.41 1.56,0.74 2.6,1.01 1.03,0.26 2.32,0.4 3.87,0.4 1.22,0 2.4,-0.1 3.54,-0.28 1.14,-0.18 2.14,-0.49 2.99,-0.91 0.86,-0.43 1.55,-0.96 2.08,-1.59 0.53,-0.63 0.79,-1.42 0.79,-2.35 0,-0.9 -0.28,-1.63 -0.85,-2.2 -0.57,-0.57 -1.44,-1.06 -2.6,-1.46 -1.16,-0.41 -2.59,-0.8 -4.3,-1.16 -1.71,-0.37 -3.68,-0.84 -5.92,-1.41 -2.04,-0.49 -3.82,-1.07 -5.34,-1.74 -1.53,-0.67 -2.79,-1.49 -3.79,-2.47 -0.99,-0.98 -1.74,-2.13 -2.23,-3.45 -0.48,-1.32 -0.73,-2.9 -0.73,-4.73 0,-1.83 0.41,-3.52 1.22,-5.07 0.82,-1.54 1.94,-2.86 3.36,-3.96 1.42,-1.1 3.12,-1.97 5.1,-2.6 1.97,-0.63 4.1,-0.94 6.38,-0.94z"/>
   <path id="_1" class="fil2" d="M236.78 94.66c0.45,0 0.83,0.16 1.16,0.49 0.32,0.32 0.49,0.71 0.49,1.16l0 39.43c0,0.45 -0.17,0.83 -0.49,1.16 -0.33,0.32 -0.71,0.49 -1.16,0.49l-4.95 0c-0.44,0 -0.83,-0.17 -1.16,-0.49 -0.32,-0.33 -0.48,-0.71 -0.48,-1.16l0 -16.12 -18.44 0 0 16.12c0,0.45 -0.16,0.83 -0.49,1.16 -0.32,0.32 -0.71,0.49 -1.16,0.49l-4.94 0c-0.45,0 -0.84,-0.16 -1.16,-0.46 -0.33,-0.31 -0.49,-0.7 -0.49,-1.19l0 -39.43c0,-0.45 0.16,-0.84 0.49,-1.16 0.32,-0.33 0.71,-0.49 1.16,-0.49l4.94 0c0.45,0 0.84,0.16 1.16,0.49 0.33,0.32 0.49,0.71 0.49,1.16l0 15.68 18.44 0 0 -15.68c0,-0.45 0.16,-0.84 0.48,-1.16 0.33,-0.33 0.72,-0.49 1.16,-0.49l4.95 0z"/>
   <path id="_2" class="fil2" d="M246.48 110.59c0.13,-2.28 0.56,-4.43 1.32,-6.44 0.75,-2.01 1.86,-3.77 3.32,-5.25 1.47,-1.49 3.3,-2.67 5.5,-3.54 2.19,-0.88 4.8,-1.31 7.81,-1.31 2.97,0 5.55,0.42 7.75,1.28 2.2,0.85 4.03,2.03 5.5,3.54 1.46,1.5 2.58,3.25 3.35,5.25 0.78,1.99 1.22,4.15 1.35,6.47 0.04,0.77 0.07,1.63 0.09,2.56 0.02,0.94 0.03,1.91 0.03,2.9 0,1 -0.01,1.97 -0.03,2.9 -0.02,0.94 -0.05,1.79 -0.09,2.57 -0.13,2.27 -0.56,4.42 -1.32,6.44 -0.75,2.01 -1.86,3.76 -3.32,5.24 -1.47,1.49 -3.31,2.66 -5.53,3.51 -2.22,0.86 -4.81,1.29 -7.78,1.29 -3.01,0 -5.62,-0.43 -7.81,-1.29 -2.2,-0.85 -4.03,-2.02 -5.5,-3.51 -1.46,-1.48 -2.57,-3.23 -3.32,-5.24 -0.76,-2.02 -1.19,-4.17 -1.32,-6.44 -0.04,-0.78 -0.07,-1.63 -0.09,-2.57 -0.02,-0.93 -0.03,-1.9 -0.03,-2.9 0,-0.99 0.01,-1.96 0.03,-2.9 0.02,-0.93 0.05,-1.79 0.09,-2.56zm27.65 0.3c-0.16,-2.93 -1.1,-5.19 -2.83,-6.8 -1.73,-1.61 -4.02,-2.41 -6.87,-2.41 -2.85,0 -5.14,0.8 -6.87,2.41 -1.73,1.61 -2.67,3.87 -2.84,6.8 -0.08,1.55 -0.12,3.27 -0.12,5.16 0,1.89 0.04,3.61 0.12,5.16 0.17,2.93 1.11,5.19 2.84,6.78 1.73,1.58 4.02,2.38 6.87,2.38 2.85,0 5.14,-0.8 6.87,-2.38 1.73,-1.59 2.67,-3.85 2.83,-6.78 0.09,-1.55 0.13,-3.27 0.13,-5.16 0,-1.89 -0.04,-3.61 -0.13,-5.16z"/>
   <path id="_3" class="fil2" d="M308.44 94.66c4.92,0 8.75,1.16 11.47,3.48 2.73,2.32 4.09,5.71 4.09,10.19 0,4.48 -1.36,7.9 -4.09,10.26 -2.72,2.36 -6.55,3.54 -11.47,3.54l-9.77 0 0 13.61c0,0.45 -0.16,0.83 -0.49,1.16 -0.32,0.32 -0.71,0.49 -1.16,0.49l-4.94 0c-0.45,0 -0.83,-0.17 -1.16,-0.49 -0.32,-0.33 -0.49,-0.71 -0.49,-1.16l0 -39.43c0,-0.45 0.17,-0.84 0.49,-1.16 0.33,-0.33 0.71,-0.49 1.16,-0.49l16.36 0zm-9.77 19.84l9.46 0c2.32,0 4.18,-0.46 5.56,-1.38 1.38,-0.91 2.07,-2.51 2.07,-4.79 0,-2.28 -0.69,-3.86 -2.07,-4.73 -1.38,-0.87 -3.24,-1.31 -5.56,-1.31l-9.46 0 0 12.21z"/>
   <path id="_4" class="fil2" d="M348.67 94.66c4.92,0 8.74,1.16 11.47,3.48 2.73,2.32 4.09,5.71 4.09,10.19 0,4.48 -1.36,7.9 -4.09,10.26 -2.73,2.36 -6.55,3.54 -11.47,3.54l-9.77 0 0 13.61c0,0.45 -0.16,0.83 -0.49,1.16 -0.33,0.32 -0.71,0.49 -1.16,0.49l-4.94 0c-0.45,0 -0.84,-0.17 -1.16,-0.49 -0.33,-0.33 -0.49,-0.71 -0.49,-1.16l0 -39.43c0,-0.45 0.16,-0.84 0.49,-1.16 0.32,-0.33 0.71,-0.49 1.16,-0.49l16.36 0zm-9.77 19.84l9.46 0c2.32,0 4.17,-0.46 5.55,-1.38 1.39,-0.91 2.08,-2.51 2.08,-4.79 0,-2.28 -0.69,-3.86 -2.08,-4.73 -1.38,-0.87 -3.23,-1.31 -5.55,-1.31l-9.46 0 0 12.21z"/>
   <path id="_5" class="fil2" d="M372.53 137.39c-0.45,0 -0.83,-0.17 -1.16,-0.49 -0.32,-0.33 -0.49,-0.71 -0.49,-1.16l0 -39.43c0,-0.45 0.17,-0.84 0.49,-1.16 0.33,-0.33 0.71,-0.49 1.16,-0.49l4.95 0c0.44,0 0.83,0.16 1.16,0.49 0.32,0.32 0.48,0.71 0.48,1.16l0 39.43c0,0.45 -0.16,0.83 -0.48,1.16 -0.33,0.32 -0.72,0.49 -1.16,0.49l-4.95 0z"/>
   <path id="_6" class="fil2" d="M416.36 137.39c-0.69,0 -1.22,-0.19 -1.59,-0.55 -0.36,-0.37 -0.63,-0.65 -0.79,-0.86l-17.09 -25.39 0 25.15c0,0.45 -0.17,0.83 -0.49,1.16 -0.33,0.32 -0.71,0.49 -1.16,0.49l-4.94 0c-0.45,0 -0.84,-0.17 -1.16,-0.49 -0.33,-0.33 -0.49,-0.71 -0.49,-1.16l0 -39.43c0,-0.45 0.16,-0.84 0.49,-1.16 0.32,-0.33 0.71,-0.49 1.16,-0.49l4.27 0c0.69,0 1.22,0.18 1.58,0.55 0.37,0.36 0.64,0.65 0.8,0.85l17.09 25.39 0 -25.14c0,-0.45 0.16,-0.84 0.49,-1.16 0.32,-0.33 0.71,-0.49 1.16,-0.49l4.94 0c0.45,0 0.84,0.16 1.16,0.49 0.33,0.32 0.49,0.71 0.49,1.16l0 39.43c0,0.45 -0.16,0.83 -0.49,1.16 -0.32,0.32 -0.71,0.49 -1.16,0.49l-4.27 0z"/>
   <path id="_7" class="fil2" d="M430.28 110.47c0.08,-2.44 0.53,-4.67 1.34,-6.69 0.81,-2.01 1.99,-3.74 3.54,-5.19 1.55,-1.44 3.45,-2.56 5.71,-3.35 2.26,-0.8 4.89,-1.19 7.9,-1.19 3.54,0 6.46,0.45 8.76,1.37 2.3,0.92 4.13,2.01 5.5,3.3 1.36,1.28 2.31,2.6 2.86,3.96 0.55,1.37 0.87,2.52 0.95,3.45 0.04,0.49 -0.11,0.89 -0.46,1.19 -0.34,0.31 -0.74,0.46 -1.19,0.46l-4.94 0c-0.45,0 -0.81,-0.11 -1.07,-0.33 -0.26,-0.23 -0.46,-0.46 -0.58,-0.71 -0.08,-0.16 -0.3,-0.52 -0.64,-1.06 -0.35,-0.55 -0.9,-1.12 -1.65,-1.71 -0.75,-0.59 -1.74,-1.12 -2.96,-1.59 -1.22,-0.47 -2.75,-0.7 -4.58,-0.7 -3.05,0 -5.49,0.82 -7.32,2.47 -1.83,1.65 -2.81,3.85 -2.93,6.62 -0.08,1.55 -0.12,3.21 -0.12,4.98 0,1.77 0.04,3.43 0.12,4.97 0.12,3.38 1.1,5.83 2.93,7.36 1.83,1.52 4.27,2.29 7.32,2.29 1.51,0 2.89,-0.17 4.15,-0.49 1.26,-0.33 2.35,-0.86 3.27,-1.59 0.91,-0.73 1.63,-1.7 2.14,-2.9 0.5,-1.2 0.76,-2.67 0.76,-4.42l0 -0.49 -7.45 0c-0.45,0 -0.83,-0.17 -1.16,-0.49 -0.32,-0.33 -0.49,-0.71 -0.49,-1.16l0 -4.33c0,-0.45 0.17,-0.84 0.49,-1.16 0.33,-0.33 0.71,-0.49 1.16,-0.49l14.04 0c0.45,0 0.83,0.16 1.16,0.49 0.33,0.32 0.49,0.71 0.49,1.16l0 6.71c0,2.44 -0.39,4.69 -1.16,6.75 -0.77,2.05 -1.93,3.82 -3.48,5.31 -1.55,1.48 -3.48,2.64 -5.8,3.48 -2.32,0.83 -5.03,1.25 -8.12,1.25 -3.09,0 -5.78,-0.41 -8.06,-1.22 -2.27,-0.82 -4.17,-1.96 -5.67,-3.42 -1.51,-1.47 -2.66,-3.23 -3.45,-5.28 -0.79,-2.06 -1.23,-4.31 -1.31,-6.75 -0.04,-0.77 -0.07,-1.63 -0.09,-2.56 -0.02,-0.94 -0.04,-1.89 -0.04,-2.87 0,-0.98 0.02,-1.93 0.04,-2.87 0.02,-0.94 0.05,-1.79 0.09,-2.56z"/>
   <path class="fil2" d="M198.06 43.48l21.29 -36.98c0.3,-0.37 0.8,-0.97 1.51,-1.79 0.71,-0.82 1.81,-1.23 3.3,-1.23l7.62 0c0.83,0 1.54,0.3 2.13,0.89 0.6,0.6 0.9,1.31 0.9,2.13l0 72.39c0,0.82 -0.3,1.53 -0.9,2.13 -0.59,0.59 -1.3,0.89 -2.13,0.89l-9.07 0c-0.82,0 -1.53,-0.3 -2.13,-0.89 -0.6,-0.6 -0.9,-1.31 -0.9,-2.13l0 -43.81 -14.56 25.21c-0.38,0.59 -0.9,1.21 -1.57,1.85 -0.68,0.63 -1.53,0.95 -2.58,0.95l-5.83 0c-1.04,0 -1.9,-0.32 -2.57,-0.95 -0.68,-0.64 -1.2,-1.26 -1.57,-1.85l-14.57 -25.21 0 43.81c0,0.82 -0.3,1.53 -0.9,2.13 -0.59,0.59 -1.3,0.89 -2.12,0.89l-9.08 0c-0.82,0 -1.53,-0.3 -2.13,-0.89 -0.6,-0.6 -0.9,-1.31 -0.9,-2.13l0 -72.39c0,-0.82 0.3,-1.53 0.9,-2.13 0.6,-0.59 1.31,-0.89 2.13,-0.89l7.62 0c1.49,0 2.59,0.41 3.3,1.23 0.71,0.82 1.22,1.42 1.52,1.79l21.29 36.98z"/>
   <path id="_1_0" class="fil2" d="M304.51 67.91c0.82,0 1.53,0.29 2.12,0.89 0.6,0.6 0.9,1.31 0.9,2.13l0 7.96c0,0.82 -0.3,1.53 -0.9,2.13 -0.59,0.59 -1.3,0.89 -2.12,0.89l-49.2 0c-0.82,0 -1.53,-0.3 -2.12,-0.89 -0.6,-0.6 -0.9,-1.31 -0.9,-2.13l0 -72.39c0,-0.82 0.3,-1.53 0.9,-2.13 0.59,-0.59 1.3,-0.89 2.12,-0.89l48.3 0c0.82,0 1.53,0.3 2.13,0.89 0.6,0.6 0.89,1.31 0.89,2.13l0 7.96c0,0.82 -0.29,1.53 -0.89,2.13 -0.6,0.59 -1.31,0.89 -2.13,0.89l-36.19 0 0 17.82 33.72 0c0.83,0 1.54,0.3 2.13,0.9 0.6,0.59 0.9,1.3 0.9,2.12l0 7.96c0,0.82 -0.3,1.53 -0.9,2.13 -0.59,0.6 -1.3,0.9 -2.13,0.9l-33.72 0 0 18.6 37.09 0z"/>
   <path id="_2_1" class="fil2" d="M317.95 32.5c0.15,-4.48 0.97,-8.57 2.47,-12.27 1.49,-3.7 3.66,-6.87 6.5,-9.53 2.83,-2.65 6.33,-4.7 10.47,-6.16 4.15,-1.46 8.98,-2.18 14.51,-2.18 6.5,0 11.86,0.84 16.08,2.52 4.22,1.68 7.58,3.7 10.09,6.05 2.5,2.35 4.25,4.78 5.26,7.28 1.01,2.5 1.59,4.61 1.74,6.33 0.07,0.9 -0.21,1.63 -0.84,2.19 -0.64,0.56 -1.36,0.84 -2.19,0.84l-9.07 0c-0.82,0 -1.48,-0.21 -1.96,-0.62 -0.49,-0.41 -0.84,-0.84 -1.07,-1.29 -0.15,-0.3 -0.54,-0.95 -1.17,-1.96 -0.64,-1.01 -1.65,-2.05 -3.03,-3.14 -1.38,-1.08 -3.19,-2.05 -5.43,-2.91 -2.24,-0.86 -5.05,-1.29 -8.41,-1.29 -5.6,0 -10.08,1.52 -13.44,4.54 -3.36,3.03 -5.16,7.08 -5.38,12.16 -0.15,2.84 -0.23,5.88 -0.23,9.13 0,3.25 0.08,6.29 0.23,9.13 0.22,6.2 2.02,10.7 5.38,13.5 3.36,2.81 7.84,4.21 13.44,4.21 2.77,0 5.31,-0.3 7.62,-0.9 2.32,-0.6 4.32,-1.57 6,-2.91 1.68,-1.35 2.98,-3.12 3.92,-5.33 0.93,-2.2 1.4,-4.91 1.4,-8.12l0 -0.9 -13.67 0c-0.82,0 -1.53,-0.29 -2.13,-0.89 -0.6,-0.6 -0.9,-1.31 -0.9,-2.13l0 -7.96c0,-0.82 0.3,-1.53 0.9,-2.13 0.6,-0.59 1.31,-0.89 2.13,-0.89l25.77 0c0.82,0 1.53,0.3 2.13,0.89 0.6,0.6 0.9,1.31 0.9,2.13l0 12.33c0,4.48 -0.71,8.61 -2.13,12.38 -1.42,3.77 -3.55,7.02 -6.39,9.75 -2.84,2.73 -6.39,4.85 -10.64,6.39 -4.26,1.53 -9.23,2.29 -14.91,2.29 -5.67,0 -10.6,-0.74 -14.79,-2.24 -4.18,-1.49 -7.65,-3.58 -10.42,-6.27 -2.76,-2.69 -4.87,-5.92 -6.33,-9.7 -1.46,-3.77 -2.26,-7.89 -2.41,-12.38 -0.07,-1.42 -0.13,-2.98 -0.17,-4.7 -0.03,-1.72 -0.05,-3.48 -0.05,-5.27 0,-1.79 0.02,-3.55 0.05,-5.27 0.04,-1.71 0.1,-3.28 0.17,-4.7z"/>
   <path id="_3_2" class="fil2" d="M435.49 3.48c1.2,0 2.09,0.31 2.69,0.95 0.6,0.63 1.12,1.59 1.57,2.86l27.45 70.81c0.08,0.23 0.12,0.49 0.12,0.79 0,0.82 -0.3,1.53 -0.9,2.13 -0.6,0.59 -1.31,0.89 -2.13,0.89l-8.07 0c-1.49,0 -2.54,-0.31 -3.14,-0.95 -0.59,-0.63 -1,-1.25 -1.23,-1.85l-4.82 -12.44 -35.4 0 -4.82 12.44c-0.23,0.6 -0.64,1.22 -1.23,1.85 -0.6,0.64 -1.65,0.95 -3.14,0.95l-8.07 0c-0.82,0 -1.53,-0.3 -2.13,-0.89 -0.6,-0.6 -0.9,-1.31 -0.9,-2.13 0,-0.3 0.04,-0.56 0.12,-0.79l27.45 -70.81c0.45,-1.27 0.97,-2.23 1.57,-2.86 0.6,-0.64 1.49,-0.95 2.69,-0.95l12.32 0zm6.17 49.19l-12.33 -31.94 -12.33 31.94 24.66 0z"/>
  </g>
 </g>
</svg>
